<svg width="153" height="171" viewBox="0 0 153 171" fill="none" xmlns="http://www.w3.org/2000/svg">
<path d="M147.1 92.2992H139.6V86.6992H131.3V59.6992H121.7V46.6992H105.6V36.7992H99V29.3992H89.2V32.5992H72.3V24.6992C32.7 25.6992 0.899994 57.9992 0.899994 97.7992C0.899994 138.199 33.7 170.999 74.1 170.999C114.5 170.999 147.3 138.199 147.3 97.7992C147.3 95.9992 147.3 94.0992 147.1 92.2992Z" fill="#F9A34E"/>
<path d="M105.8 6.40039H95.8V16.4004H105.8V6.40039Z" fill="#F9A34E"/>
<path d="M152.7 0.900391H138.8V14.8004H152.7V0.900391Z" fill="#F9A34E"/>
<path d="M129.6 16.3008H115.7V30.2008H129.6V16.3008Z" fill="#F9A34E"/>
<path d="M138 42.0996H127.3V52.7996H138V42.0996Z" fill="#F9A34E"/>
<path d="M149.2 74.0996H143.3V79.9996H149.2V74.0996Z" fill="#F9A34E"/>
<path d="M84.9 13.0996H79V18.9996H84.9V13.0996Z" fill="#F9A34E"/>
<path d="M81.8 49.4004L92.9 49.7004C93.5 49.7004 93.9 50.4004 93.8 51.1004L90.8 65.8004C90.7 66.3004 90.3 66.7004 89.8 66.7004L78.7 66.3004C78.1 66.3004 77.7 65.6004 77.8 64.9004L80.8 50.3004C81 49.7004 81.4 49.4004 81.8 49.4004Z" fill="#42429B"/>
<path d="M62.2001 131L74.4 131.1C75.1 131.1 75.5 131.7 75.4 132.3L72.4 145.3C72.3 145.8 71.9 146.1 71.4 146.1L58.5 145.9C57.8 145.9 58.1001 145.2 58.2001 144.6L61.2001 131.7C61.2001 131.3 61.7001 131 62.2001 131Z" fill="#42429B"/>
<path d="M94.9 51.7996L91.5 66.4996C91.5 66.6996 91.5 66.7996 91.5 66.9996C91.7 68.4996 91.5 70.3996 91 72.5996L90.1 76.3996C87.8 86.1996 85.1 88.6996 76.1 88.6996H72.2C71.3 88.6996 70.6 87.7996 70.8 86.9996L76.1 65.7996L79.4 51.2996C79.6 50.3996 78.9 49.5996 78 49.5996H64.3C63.7 49.5996 63.1 49.9996 62.9 50.6996L39.2 144.1C39 145 39.6 145.8 40.6 145.8H54.4C55 145.8 55.6 145.4 55.7 144.8L59 133.2L67.1 101.7C67.3 101.1 67.8 100.6 68.5 100.6H72.4C83.9 100.6 84.5 105.3 82.8 113.1L81.3 119.7C80.5 123.3 79.6 126.1 78.3 128.3C78.2 128.4 78.2 128.5 78.2 128.6L74.1 143.2C73.8 144.2 74.7 145.1 75.7 145C89.6 142.7 95.6 135 98.7 121.4L100.2 114.9C102.1 106.7 100.1 100.4 94.1 96.7996C93.1 96.1996 93.2 94.6996 94.3 94.2996C100.6 91.8996 104.9 86.5996 106.8 78.2996L108 73.0996C110.6 61.1996 107.2 53.3996 96.6 50.5996C95.9 50.4996 95.1 50.9996 94.9 51.7996Z" fill="#42429B"/>
</svg>
