<svg width="32" height="32" viewBox="0 0 32 32" fill="none" xmlns="http://www.w3.org/2000/svg">
<path d="M19.7868 12.2129C19.3142 11.7402 18.5478 11.7402 18.0752 12.2129L16 14.2881L13.9247 12.2129C13.4521 11.7402 12.6858 11.7402 12.2131 12.2129C11.7405 12.6855 11.7405 13.4518 12.2131 13.9245L14.2884 15.9997L12.2131 18.0749C11.7405 18.5475 11.7405 19.314 12.2131 19.7866C12.6858 20.2592 13.4521 20.2592 13.9247 19.7866L16 17.7114L18.0752 19.7866C18.5478 20.2592 19.3142 20.2592 19.7868 19.7866C20.2595 19.314 20.2595 18.5475 19.7868 18.0749L17.7116 15.9997L19.7868 13.9245C20.2595 13.4518 20.2595 12.6855 19.7868 12.2129Z" fill="white"/>
<path fill-rule="evenodd" clip-rule="evenodd" d="M15.9999 1.59961C8.04696 1.59961 1.59985 8.04671 1.59985 15.9996C1.59985 23.9526 8.04696 30.3996 15.9999 30.3996C23.9528 30.3996 30.3999 23.9526 30.3999 15.9996C30.3999 8.04671 23.9528 1.59961 15.9999 1.59961ZM4.02041 15.9996C4.02041 9.38355 9.38379 4.02017 15.9999 4.02017C22.6159 4.02017 27.9794 9.38355 27.9794 15.9996C27.9794 22.6156 22.6159 27.9791 15.9999 27.9791C9.38379 27.9791 4.02041 22.6156 4.02041 15.9996Z" fill="white"/>
</svg>
