<svg width="20" height="20" viewBox="0 0 20 20" fill="none" xmlns="http://www.w3.org/2000/svg">
<path fill-rule="evenodd" clip-rule="evenodd" d="M16.765 3.14084C16.7106 3.11483 16.6351 3.08759 16.4577 3.02632C15.8722 2.82404 15.0131 2.58483 14.1671 2.54521C13.3064 2.50489 12.6078 2.67591 12.1632 3.1205L10.5775 4.70628C10.545 4.73872 10.513 4.77079 10.4814 4.80249C9.92848 5.35653 9.49064 5.79528 8.91569 6.01132C8.34073 6.22735 7.7223 6.18547 6.94136 6.1326C6.89668 6.12957 6.85147 6.12651 6.8057 6.12346L5.82646 6.05818C5.29515 6.02276 4.94324 5.99991 4.66835 6.00442C4.40552 6.00872 4.27131 6.03848 4.17343 6.07847C4.02663 6.13845 3.89223 6.22512 3.77703 6.33408C3.70021 6.40675 3.61772 6.51671 3.50535 6.75435C3.38781 7.00289 3.26341 7.33287 3.07644 7.83146C2.84625 8.44532 2.69177 8.85914 2.60572 9.16449C2.54692 9.37312 2.5419 9.46301 2.5405 9.48416C2.54627 9.49887 2.5507 9.50858 2.55376 9.51475C2.556 9.51927 2.55835 9.52333 2.55835 9.52333L2.55973 9.52549L2.56134 9.52748C2.56134 9.52748 2.56443 9.531 2.56801 9.53456C2.57183 9.53838 2.57745 9.54368 2.58554 9.5507C2.59249 9.55262 2.60158 9.55492 2.61309 9.55745C2.6824 9.57267 2.79606 9.58686 2.97703 9.59404C3.34346 9.60858 3.85679 9.59113 4.60083 9.56507C6.07451 9.51346 7.90048 9.72309 9.08935 10.912C10.2782 12.1008 10.4878 13.9268 10.4362 15.4005C10.4102 16.1445 10.3927 16.6578 10.4073 17.0243C10.4144 17.2052 10.4286 17.3189 10.4438 17.3882C10.4464 17.3997 10.4487 17.4088 10.4506 17.4158C10.4576 17.4238 10.4629 17.4295 10.4667 17.4333C10.4703 17.4369 10.4738 17.44 10.4738 17.44L10.4758 17.4416L10.478 17.443C10.478 17.443 10.482 17.4453 10.4865 17.4475C10.4927 17.4506 10.5024 17.455 10.5171 17.4608C10.5383 17.4594 10.6282 17.4544 10.8368 17.3956C11.1422 17.3095 11.556 17.1551 12.1698 16.9249C12.6684 16.7379 12.9984 16.6135 13.247 16.496C13.4846 16.3836 13.5946 16.3011 13.6672 16.2243C13.7762 16.1091 13.8628 15.9747 13.9228 15.8279C13.9628 15.73 13.9926 15.5958 13.9969 15.333C14.0014 15.0581 13.9785 14.7062 13.9431 14.1748L13.8778 13.1956C13.8748 13.1498 13.8717 13.1046 13.8687 13.0599C13.8158 12.279 13.774 11.6606 13.99 11.0856C14.206 10.5107 14.6448 10.0728 15.1988 9.51992C15.2305 9.48829 15.2626 9.45628 15.295 9.42385L16.8808 7.83807C17.3254 7.39347 17.4964 6.69491 17.4561 5.8342C17.4165 4.9882 17.1773 4.12913 16.975 3.54355C16.9137 3.36617 16.8865 3.29065 16.8605 3.23633C16.8453 3.20462 16.838 3.1956 16.8219 3.17945C16.8057 3.1633 16.7967 3.15602 16.765 3.14084ZM17.0117 1.58872C17.2969 1.68651 17.6155 1.79576 17.9105 2.09078C18.2055 2.3858 18.3148 2.70439 18.4126 2.98957C18.4185 3.0068 18.4244 3.0239 18.4302 3.04087C18.6538 3.68825 18.9445 4.70564 18.994 5.76217C19.0428 6.804 18.8621 8.03406 17.9695 8.92673L16.3837 10.5125C15.6862 11.21 15.5151 11.4038 15.4312 11.6271C15.3473 11.8505 15.3484 12.109 15.414 13.0932L15.4814 14.103C15.5142 14.5957 15.542 15.0117 15.5363 15.3582C15.5303 15.7239 15.4876 16.0687 15.3481 16.4102C15.2161 16.7331 15.0255 17.0288 14.7857 17.2823C14.5322 17.5502 14.2358 17.7314 13.9051 17.8878C13.5919 18.0359 13.2014 18.1823 12.7391 18.3557L12.6767 18.3791C12.1052 18.5934 11.63 18.7716 11.2544 18.8775C10.9015 18.9769 10.4538 19.0717 10.0308 18.9223C9.68244 18.7993 9.44102 18.6257 9.21354 18.3345C9.05852 18.1361 8.9826 17.9121 8.94006 17.7184C8.89698 17.5222 8.87764 17.3066 8.86886 17.0853C8.85176 16.6541 8.87178 16.0826 8.89638 15.3804L8.89756 15.3466C8.94625 13.9565 8.70941 12.7094 8.00068 12.0006C7.29194 11.2919 6.04482 11.055 4.65471 11.1037L4.62096 11.1049C3.91873 11.1295 3.34716 11.1495 2.916 11.1324C2.69474 11.1237 2.47912 11.1043 2.28291 11.0612C2.08917 11.0187 1.8652 10.9428 1.66679 10.7878C1.37563 10.5603 1.202 10.3189 1.07896 9.97046C0.9296 9.54751 1.02438 9.09976 1.12383 8.74687C1.22968 8.37129 1.40789 7.89609 1.62222 7.32457L1.64562 7.26217C1.81897 6.79986 1.96538 6.40943 2.11351 6.09617C2.26987 5.76553 2.45105 5.46906 2.71904 5.21557C2.97249 4.97584 3.26818 4.78517 3.59113 4.65323C3.93261 4.51371 4.27743 4.47101 4.64312 4.46501C4.98959 4.45933 5.40564 4.48708 5.89828 4.51994L6.90811 4.58726C7.89232 4.65287 8.15082 4.654 8.37416 4.57008C8.59751 4.48617 8.79131 4.31509 9.48878 3.61761L11.0746 2.03183C11.9672 1.13916 13.1973 0.958489 14.2391 1.00728C15.2957 1.05676 16.3131 1.34746 16.9604 1.57108C16.9774 1.57694 16.9945 1.58281 17.0117 1.58872Z" fill="white"/>
<path fill-rule="evenodd" clip-rule="evenodd" d="M5.99405 14.0072C5.493 13.5061 4.68065 13.5061 4.1796 14.0072C3.93993 14.2469 3.71967 14.6857 3.5608 15.3062C3.45342 15.7256 3.38401 16.1886 3.34755 16.6537C3.81264 16.6172 4.27567 16.5478 4.69505 16.4404C5.3155 16.2816 5.75438 16.0613 5.99405 15.8216C6.4951 15.3206 6.4951 14.5082 5.99405 14.0072ZM3.09093 12.9185C4.19323 11.8162 5.98042 11.8162 7.08272 12.9185C8.18502 14.0208 8.18502 15.808 7.08272 16.9103C6.55815 17.4349 5.80708 17.745 5.07694 17.9319C4.32981 18.1232 3.51245 18.2086 2.76594 18.2224C2.21634 18.2326 1.76866 17.7849 1.77883 17.2353C1.79264 16.4888 1.878 15.6714 2.06931 14.9243C2.25626 14.1942 2.56637 13.4431 3.09093 12.9185Z" fill="white"/>
<path d="M15.2477 6.20506C14.8469 6.6059 14.197 6.6059 13.7962 6.20506C13.3953 5.80422 13.3953 5.15434 13.7962 4.7535C14.197 4.35267 14.8469 4.35267 15.2477 4.7535C15.6486 5.15434 15.6486 5.80422 15.2477 6.20506Z" fill="white"/>
</svg>
