<svg width="1080" height="1080" viewBox="0 0 1080 1080" fill="none" xmlns="http://www.w3.org/2000/svg">
<path d="M396.1 544.299H388.6V538.699H380.3V511.699H370.7V498.699H354.6V488.799H348V481.399H338.2V484.599H321.3V476.699C281.7 477.699 249.9 509.999 249.9 549.799C249.9 590.199 282.7 622.999 323.1 622.999C363.5 622.999 396.3 590.199 396.3 549.799C396.3 547.999 396.3 546.099 396.1 544.299Z" fill="#F9A34E"/>
<path d="M354.8 458.4H344.8V468.4H354.8V458.4Z" fill="#F9A34E"/>
<path d="M401.7 452.9H387.8V466.8H401.7V452.9Z" fill="#F9A34E"/>
<path d="M378.6 468.301H364.7V482.201H378.6V468.301Z" fill="#F9A34E"/>
<path d="M387 494.1H376.3V504.8H387V494.1Z" fill="#F9A34E"/>
<path d="M398.2 526.1H392.3V532H398.2V526.1Z" fill="#F9A34E"/>
<path d="M333.9 465.1H328V471H333.9V465.1Z" fill="#F9A34E"/>
<path d="M330.8 501.4L341.9 501.7C342.5 501.7 342.9 502.4 342.8 503.1L339.8 517.8C339.7 518.3 339.3 518.7 338.8 518.7L327.7 518.3C327.1 518.3 326.7 517.6 326.8 516.9L329.8 502.3C330 501.7 330.4 501.4 330.8 501.4Z" fill="#42429B"/>
<path d="M311.2 583L323.4 583.1C324.1 583.1 324.5 583.7 324.4 584.3L321.4 597.3C321.3 597.8 320.9 598.1 320.4 598.1L307.5 597.9C306.8 597.9 307.1 597.2 307.2 596.6L310.2 583.7C310.2 583.3 310.7 583 311.2 583Z" fill="#42429B"/>
<path d="M481.2 499.4C495.7 499.4 508.2 504.6 518.6 514.9C529 525.2 534.1 537.7 534.1 552.3C534.1 566.8 528.9 579.3 518.6 589.7C508.2 600.1 495.8 605.2 481.2 605.2C466.6 605.2 454.1 600 443.8 589.7C433.5 579.3 428.3 566.9 428.3 552.3C428.3 551.9 428.3 551.5 428.3 551.1C428.4 551 428.4 550.8 428.4 550.7H428.3V453.9H458.2V504.6C465.3 501.1 472.9 499.4 481.2 499.4ZM481.2 575.3C487.5 575.3 492.9 573.1 497.4 568.6C501.9 564.1 504.1 558.7 504.1 552.4C504.1 546.1 501.9 540.7 497.4 536.2C492.9 531.7 487.5 529.5 481.2 529.5C474.9 529.5 469.5 531.7 465 536.2C460.5 540.7 458.3 546.1 458.3 552.4C458.3 558.7 460.5 564.1 465 568.6C469.5 573.1 474.8 575.3 481.2 575.3Z" fill="#42429B"/>
<path d="M645.9 550.7C645.9 550.8 645.9 551 645.9 551.1C645.9 551.5 645.9 551.8 645.9 552.3C645.9 566.8 640.7 579.3 630.4 589.7C620 600 607.6 605.2 593 605.2C578.5 605.2 566 600 555.7 589.7C545.4 579.3 540.2 566.9 540.2 552.3C540.2 537.7 545.4 525.2 555.7 514.9C566 504.6 578.5 499.4 593 499.4C601.3 499.4 609 501.2 616 504.7V454H645.9V550.7ZM593 575.3C599.4 575.3 604.8 573.1 609.3 568.6C613.8 564.1 616 558.7 616 552.4C616 546.1 613.8 540.7 609.3 536.2C604.8 531.7 599.4 529.5 593 529.5C586.7 529.5 581.3 531.7 576.8 536.2C572.3 540.7 570.1 546.1 570.1 552.4C570.1 558.7 572.3 564.1 576.8 568.6C581.3 573.1 586.6 575.3 593 575.3Z" fill="#F9A34E"/>
<path d="M708.6 497.4C723.1 497.4 735.6 502.6 745.9 512.9C756.2 523.2 761.4 535.7 761.4 550.3C761.4 564.8 756.2 577.3 745.9 587.6C735.6 597.9 723.1 603.1 708.6 603.1C694 603.1 681.5 597.9 671.2 587.6C660.9 577.3 655.7 564.8 655.7 550.3C655.7 535.7 660.9 523.2 671.2 512.9C681.5 502.6 693.9 497.4 708.6 497.4ZM708.6 622.2C718.9 622.2 726.2 616.7 730.5 605.8H761C760.5 610 759.5 614.1 758 617.9C747.6 640.7 731.1 652.1 708.6 652.1C685.1 652.1 668.4 640 658.3 615.7C657.2 612.5 656.5 609.2 656.1 605.8H686.6C690.8 616.7 698.2 622.2 708.6 622.2ZM708.6 573.3C714.9 573.3 720.3 571.1 724.8 566.6C729.3 562.1 731.5 556.7 731.5 550.4C731.5 544.1 729.3 538.7 724.8 534.2C720.3 529.7 714.9 527.5 708.6 527.5C702.3 527.5 696.9 529.7 692.4 534.2C687.9 538.7 685.7 544.1 685.7 550.4C685.7 556.7 687.9 562.1 692.4 566.6C696.8 571 702.2 573.3 708.6 573.3Z" fill="#42429B"/>
<path d="M777.4 606.301C777.5 606.301 777.5 606.301 777.6 606.301C779.2 606.301 780.5 606.901 781.6 608.001C782.7 609.101 783.3 610.401 783.3 612.001C783.3 613.601 782.7 614.901 781.6 616.001C780.5 617.101 779.2 617.701 777.6 617.701C776 617.701 774.7 617.101 773.6 616.001C772.5 614.901 771.9 613.601 771.9 612.001C771.9 611.101 772.1 610.301 772.5 609.501H767.1V606.301H777.4ZM780 612.001C780 611.301 779.8 610.701 779.3 610.301C778.8 609.801 778.2 609.601 777.6 609.601C776.9 609.601 776.3 609.801 775.9 610.301C775.4 610.801 775.2 611.401 775.2 612.001C775.2 612.701 775.4 613.301 775.9 613.701C776.4 614.201 777 614.401 777.6 614.401C778.3 614.401 778.9 614.201 779.3 613.701C779.7 613.201 780 612.701 780 612.001Z" fill="#F49A40"/>
<path d="M770.7 603.3C770.7 603.8 770.5 604.2 770.2 604.6C769.9 605 769.4 605.1 768.9 605.1C768.4 605.1 768 604.9 767.6 604.6C767.2 604.3 767.1 603.8 767.1 603.3C767.1 602.8 767.3 602.4 767.6 602C767.9 601.6 768.4 601.5 768.9 601.5C769.4 601.5 769.8 601.7 770.2 602C770.6 602.3 770.7 602.8 770.7 603.3ZM771.9 601.7H783.2V604.9H771.9V601.7Z" fill="#F49A40"/>
<path d="M771.9 595.2C771.9 593.6 772.5 592.3 773.6 591.2C774.7 590.1 776 589.5 777.6 589.5C779.2 589.5 780.5 590.1 781.6 591.2C782.7 592.3 783.3 593.6 783.3 595.2C783.3 596.8 782.7 598.1 781.6 599.2C780.5 600.3 779.2 600.9 777.6 600.9C776 600.9 774.7 600.3 773.6 599.2C772.5 598.1 771.9 596.8 771.9 595.2ZM780 595.2C780 594.5 779.8 593.9 779.3 593.5C778.8 593 778.2 592.8 777.6 592.8C776.9 592.8 776.3 593 775.9 593.5C775.5 594 775.2 594.6 775.2 595.2C775.2 595.9 775.4 596.5 775.9 596.9C776.4 597.4 777 597.6 777.6 597.6C778.3 597.6 778.9 597.4 779.3 596.9C779.8 596.4 780 595.9 780 595.2ZM785 595.2C785 594.1 784.4 593.3 783.2 592.9V589.6C783.7 589.7 784.1 589.8 784.5 589.9C786.9 591 788.2 592.8 788.2 595.2C788.2 597.7 786.9 599.5 784.3 600.6C784 600.7 783.6 600.8 783.2 600.8V597.5C784.4 597.1 785 596.3 785 595.2Z" fill="#F49A40"/>
<path d="M770.7 587.101C770.7 587.601 770.5 588.001 770.2 588.401C769.9 588.801 769.4 588.901 768.9 588.901C768.4 588.901 768 588.701 767.6 588.401C767.2 588.101 767.1 587.601 767.1 587.101C767.1 586.601 767.3 586.201 767.6 585.801C767.9 585.401 768.4 585.301 768.9 585.301C769.4 585.301 769.8 585.501 770.2 585.801C770.6 586.101 770.7 586.601 770.7 587.101ZM771.9 585.501H783.2V588.701H771.9V585.501Z" fill="#F49A40"/>
<path d="M768.7 580.102H771.9V577.602H774.2V580.102H777.5C777.5 580.102 777.5 580.102 777.6 580.102C778.3 580.102 778.9 579.902 779.3 579.402C779.8 578.902 780 578.302 780 577.602H783.2C783.2 579.202 782.6 580.502 781.5 581.602C780.4 582.702 779.1 583.202 777.5 583.202H777.4H774.2V584.502H771.9V583.202H768.7V580.102Z" fill="#F49A40"/>
<path d="M771.9 571.901C771.9 570.301 772.5 569.001 773.6 567.901C774.7 566.801 776 566.201 777.6 566.201H777.7H783.2V569.401H782.6C783 570.201 783.2 571.001 783.2 571.901C783.2 573.501 782.6 574.801 781.5 575.901C780.4 577.001 779.1 577.601 777.5 577.601C775.9 577.601 774.6 577.001 773.5 575.901C772.5 574.801 771.9 573.501 771.9 571.901ZM780 571.901C780 571.201 779.8 570.601 779.3 570.201C778.8 569.701 778.2 569.501 777.6 569.501C776.9 569.501 776.3 569.701 775.9 570.201C775.5 570.701 775.2 571.301 775.2 571.901C775.2 572.601 775.4 573.201 775.9 573.601C776.4 574.101 777 574.301 777.6 574.301C778.3 574.301 778.9 574.101 779.3 573.601C779.8 573.201 780 572.601 780 571.901Z" fill="#F49A40"/>
<path d="M783.3 565.001H767.1V561.801H783.3V565.001Z" fill="#F49A40"/>
<path d="M761.3 494.6H734.4V541.5H761.3V494.6Z" fill="#42429B"/>
<path d="M343.9 503.8L340.5 518.5C340.5 518.7 340.5 518.8 340.5 519C340.7 520.5 340.5 522.4 340 524.6L339.1 528.4C336.8 538.2 334.1 540.7 325.1 540.7H321.2C320.3 540.7 319.6 539.8 319.8 539L325.1 517.8L328.4 503.3C328.6 502.4 327.9 501.6 327 501.6H313.3C312.7 501.6 312.1 502 311.9 502.7L288.2 596.1C288 597 288.6 597.8 289.6 597.8H303.4C304 597.8 304.6 597.4 304.7 596.8L308 585.2L316.1 553.7C316.3 553.1 316.8 552.6 317.5 552.6H321.4C332.9 552.6 333.5 557.3 331.8 565.1L330.3 571.7C329.5 575.3 328.6 578.1 327.3 580.3C327.2 580.4 327.2 580.5 327.2 580.6L323.1 595.2C322.8 596.2 323.7 597.1 324.7 597C338.6 594.7 344.6 587 347.7 573.4L349.2 566.9C351.1 558.7 349.1 552.4 343.1 548.8C342.1 548.2 342.2 546.7 343.3 546.3C349.6 543.9 353.9 538.6 355.8 530.3L357 525.1C359.6 513.2 356.2 505.4 345.6 502.6C344.9 502.5 344.1 503 343.9 503.8Z" fill="#42429B"/>
</svg>
