<svg width="539" height="200" viewBox="0 0 539 200" fill="none" xmlns="http://www.w3.org/2000/svg">
<path d="M146.2 91.3988H138.7V85.7988H130.4V58.7988H120.8V45.7988H104.7V35.8988H98.1V28.4988H88.3V31.6988H71.4V23.7988C31.8 24.7988 0 57.0988 0 96.8988C0 137.299 32.8 170.099 73.2 170.099C113.6 170.099 146.4 137.299 146.4 96.8988C146.4 95.0988 146.4 93.1988 146.2 91.3988Z" fill="#F9A34E"/>
<path d="M104.9 5.5H94.9V15.5H104.9V5.5Z" fill="#F9A34E"/>
<path d="M151.8 0H137.9V13.9H151.8V0Z" fill="#F9A34E"/>
<path d="M128.7 15.4004H114.8V29.3004H128.7V15.4004Z" fill="#F9A34E"/>
<path d="M137.1 41.1992H126.4V51.8992H137.1V41.1992Z" fill="#F9A34E"/>
<path d="M148.3 73.1992H142.4V79.0992H148.3V73.1992Z" fill="#F9A34E"/>
<path d="M84 12.1992H78.1V18.0992H84V12.1992Z" fill="#F9A34E"/>
<path d="M80.9 48.5L92 48.8C92.6 48.8 93 49.5 92.9 50.2L89.9 64.9C89.8 65.4 89.4 65.8 88.9 65.8L77.8 65.4C77.2 65.4 76.8 64.7 76.9 64L79.9 49.4C80.1 48.8 80.5 48.5 80.9 48.5Z" fill="#42429B"/>
<path d="M61.3 130.1L73.5 130.2C74.2 130.2 74.6 130.8 74.5 131.4L71.5 144.4C71.4 144.9 71 145.2 70.5 145.2L57.6 145C56.9 145 57.2 144.3 57.3 143.7L60.3 130.8C60.3 130.4 60.8 130.1 61.3 130.1Z" fill="#42429B"/>
<path d="M231.3 46.5C245.8 46.5 258.3 51.7 268.7 62C279.1 72.3 284.2 84.8 284.2 99.4C284.2 113.9 279 126.4 268.7 136.8C258.3 147.2 245.9 152.3 231.3 152.3C216.7 152.3 204.2 147.1 193.9 136.8C183.6 126.4 178.4 114 178.4 99.4C178.4 99 178.4 98.6 178.4 98.2C178.5 98.1 178.5 97.9 178.5 97.8H178.4V1H208.3V51.7C215.4 48.2 223 46.5 231.3 46.5ZM231.3 122.4C237.6 122.4 243 120.2 247.5 115.7C252 111.2 254.2 105.8 254.2 99.5C254.2 93.2 252 87.8 247.5 83.3C243 78.8 237.6 76.6 231.3 76.6C225 76.6 219.6 78.8 215.1 83.3C210.6 87.8 208.4 93.2 208.4 99.5C208.4 105.8 210.6 111.2 215.1 115.7C219.6 120.2 224.9 122.4 231.3 122.4Z" fill="#42429B"/>
<path d="M396 97.7996C396 97.8996 396 98.0996 396 98.1996C396 98.5996 396 98.8996 396 99.3996C396 113.9 390.8 126.4 380.5 136.8C370.1 147.1 357.7 152.3 343.1 152.3C328.6 152.3 316.1 147.1 305.8 136.8C295.5 126.4 290.3 114 290.3 99.3996C290.3 84.7996 295.5 72.2996 305.8 61.9996C316.1 51.6996 328.6 46.4996 343.1 46.4996C351.4 46.4996 359.1 48.2996 366.1 51.7996V1.09961H396V97.7996ZM343.1 122.4C349.5 122.4 354.9 120.2 359.4 115.7C363.9 111.2 366.1 105.8 366.1 99.4996C366.1 93.1996 363.9 87.7996 359.4 83.2996C354.9 78.7996 349.5 76.5996 343.1 76.5996C336.8 76.5996 331.4 78.7996 326.9 83.2996C322.4 87.7996 320.2 93.1996 320.2 99.4996C320.2 105.8 322.4 111.2 326.9 115.7C331.4 120.2 336.7 122.4 343.1 122.4Z" fill="#F9A34E"/>
<path d="M458.7 44.5C473.2 44.5 485.7 49.7 496 60C506.3 70.3 511.5 82.8 511.5 97.4C511.5 111.9 506.3 124.4 496 134.7C485.7 145 473.2 150.2 458.7 150.2C444.1 150.2 431.6 145 421.3 134.7C411 124.4 405.8 111.9 405.8 97.4C405.8 82.8 411 70.3 421.3 60C431.6 49.7 444 44.5 458.7 44.5ZM458.7 169.3C469 169.3 476.3 163.8 480.6 152.9H511.1C510.6 157.1 509.6 161.2 508.1 165C497.7 187.8 481.2 199.2 458.7 199.2C435.2 199.2 418.5 187.1 408.4 162.8C407.3 159.6 406.6 156.3 406.2 152.9H436.7C440.9 163.8 448.3 169.3 458.7 169.3ZM458.7 120.4C465 120.4 470.4 118.2 474.9 113.7C479.4 109.2 481.6 103.8 481.6 97.5C481.6 91.2 479.4 85.8 474.9 81.3C470.4 76.8 465 74.6 458.7 74.6C452.4 74.6 447 76.8 442.5 81.3C438 85.8 435.8 91.2 435.8 97.5C435.8 103.8 438 109.2 442.5 113.7C446.9 118.1 452.3 120.4 458.7 120.4Z" fill="#42429B"/>
<path d="M527.5 153.4C527.6 153.4 527.6 153.4 527.7 153.4C529.3 153.4 530.6 154 531.7 155.1C532.8 156.2 533.4 157.5 533.4 159.1C533.4 160.7 532.8 162 531.7 163.1C530.6 164.2 529.3 164.8 527.7 164.8C526.1 164.8 524.8 164.2 523.7 163.1C522.6 162 522 160.7 522 159.1C522 158.2 522.2 157.4 522.6 156.6H517.2V153.4H527.5ZM530.1 159.1C530.1 158.4 529.9 157.8 529.4 157.4C528.9 156.9 528.3 156.7 527.7 156.7C527 156.7 526.4 156.9 526 157.4C525.5 157.9 525.3 158.5 525.3 159.1C525.3 159.8 525.5 160.4 526 160.8C526.5 161.3 527.1 161.5 527.7 161.5C528.4 161.5 529 161.3 529.4 160.8C529.8 160.3 530.1 159.8 530.1 159.1Z" fill="#F49A40"/>
<path d="M520.8 150.4C520.8 150.9 520.6 151.3 520.3 151.7C520 152.1 519.5 152.2 519 152.2C518.5 152.2 518.1 152 517.7 151.7C517.3 151.4 517.2 150.9 517.2 150.4C517.2 149.9 517.4 149.5 517.7 149.1C518 148.7 518.5 148.6 519 148.6C519.5 148.6 519.9 148.8 520.3 149.1C520.7 149.4 520.8 149.9 520.8 150.4ZM522 148.8H533.3V152H522V148.8Z" fill="#F49A40"/>
<path d="M522 142.3C522 140.7 522.6 139.4 523.7 138.3C524.8 137.2 526.1 136.6 527.7 136.6C529.3 136.6 530.6 137.2 531.7 138.3C532.8 139.4 533.4 140.7 533.4 142.3C533.4 143.9 532.8 145.2 531.7 146.3C530.6 147.4 529.3 148 527.7 148C526.1 148 524.8 147.4 523.7 146.3C522.6 145.2 522 143.9 522 142.3ZM530.1 142.3C530.1 141.6 529.9 141 529.4 140.6C528.9 140.1 528.3 139.9 527.7 139.9C527 139.9 526.4 140.1 526 140.6C525.6 141.1 525.3 141.7 525.3 142.3C525.3 143 525.5 143.6 526 144C526.5 144.5 527.1 144.7 527.7 144.7C528.4 144.7 529 144.5 529.4 144C529.9 143.5 530.1 143 530.1 142.3ZM535.1 142.3C535.1 141.2 534.5 140.4 533.3 140V136.7C533.8 136.8 534.2 136.9 534.6 137C537 138.1 538.3 139.9 538.3 142.3C538.3 144.8 537 146.6 534.4 147.7C534.1 147.8 533.7 147.9 533.3 147.9V144.6C534.5 144.2 535.1 143.4 535.1 142.3Z" fill="#F49A40"/>
<path d="M520.8 134.2C520.8 134.7 520.6 135.1 520.3 135.5C520 135.9 519.5 136 519 136C518.5 136 518.1 135.8 517.7 135.5C517.3 135.2 517.2 134.7 517.2 134.2C517.2 133.7 517.4 133.3 517.7 132.9C518 132.5 518.5 132.4 519 132.4C519.5 132.4 519.9 132.6 520.3 132.9C520.7 133.2 520.8 133.7 520.8 134.2ZM522 132.6H533.3V135.8H522V132.6Z" fill="#F49A40"/>
<path d="M518.8 127.201H522V124.701H524.3V127.201H527.6C527.6 127.201 527.6 127.201 527.7 127.201C528.4 127.201 529 127.001 529.4 126.501C529.9 126.001 530.1 125.401 530.1 124.701H533.3C533.3 126.301 532.7 127.601 531.6 128.701C530.5 129.801 529.2 130.301 527.6 130.301H527.5H524.3V131.601H522V130.301H518.8V127.201Z" fill="#F49A40"/>
<path d="M522 119.001C522 117.401 522.6 116.101 523.7 115.001C524.8 113.901 526.1 113.301 527.7 113.301H527.8H533.3V116.501H532.7C533.1 117.301 533.3 118.101 533.3 119.001C533.3 120.601 532.7 121.901 531.6 123.001C530.5 124.101 529.2 124.701 527.6 124.701C526 124.701 524.7 124.101 523.6 123.001C522.6 121.901 522 120.601 522 119.001ZM530.1 119.001C530.1 118.301 529.9 117.701 529.4 117.301C528.9 116.801 528.3 116.601 527.7 116.601C527 116.601 526.4 116.801 526 117.301C525.6 117.801 525.3 118.401 525.3 119.001C525.3 119.701 525.5 120.301 526 120.701C526.5 121.201 527.1 121.401 527.7 121.401C528.4 121.401 529 121.201 529.4 120.701C529.9 120.301 530.1 119.701 530.1 119.001Z" fill="#F49A40"/>
<path d="M533.4 112.1H517.2V108.9H533.4V112.1Z" fill="#F49A40"/>
<path d="M511.4 41.6992H484.5V88.5992H511.4V41.6992Z" fill="#42429B"/>
<path d="M94 50.8992L90.6 65.5992C90.6 65.7992 90.6 65.8992 90.6 66.0992C90.8 67.5992 90.6 69.4992 90.1 71.6992L89.2 75.4992C86.9 85.2992 84.2 87.7992 75.2 87.7992H71.3C70.4 87.7992 69.7 86.8992 69.9 86.0992L75.2 64.8992L78.5 50.3992C78.7 49.4992 78 48.6992 77.1 48.6992H63.4C62.8 48.6992 62.2 49.0992 62 49.7992L38.3 143.199C38.1 144.099 38.7 144.899 39.7 144.899H53.5C54.1 144.899 54.7 144.499 54.8 143.899L58.1 132.299L66.2 100.799C66.4 100.199 66.9 99.6992 67.6 99.6992H71.5C83 99.6992 83.6 104.399 81.9 112.199L80.4 118.799C79.6 122.399 78.7 125.199 77.4 127.399C77.3 127.499 77.3 127.599 77.3 127.699L73.2 142.299C72.9 143.299 73.8 144.199 74.8 144.099C88.7 141.799 94.7 134.099 97.8 120.499L99.3 113.999C101.2 105.799 99.2 99.4992 93.2 95.8992C92.2 95.2992 92.3 93.7992 93.4 93.3992C99.7 90.9992 104 85.6992 105.9 77.3992L107.1 72.1992C109.7 60.2992 106.3 52.4992 95.7 49.6992C95 49.5992 94.2 50.0992 94 50.8992Z" fill="#42429B"/>
</svg>
