<svg width="33" height="32" viewBox="0 0 33 32" fill="none" xmlns="http://www.w3.org/2000/svg">
<path d="M31.4979 0.931172C30.6976 0.109757 29.5131 -0.196261 28.4086 0.125863L2.6541 7.61524C1.48882 7.93897 0.662885 8.8683 0.440394 10.0489C0.213101 11.2504 1.00703 12.7757 2.04425 13.4135L10.0971 18.3629C10.9231 18.8702 11.9891 18.743 12.6726 18.0537L21.894 8.77488C22.3582 8.2917 23.1265 8.2917 23.5907 8.77488C24.0549 9.24196 24.0549 9.99895 23.5907 10.4821L14.3533 19.7625C13.6682 20.4503 13.5402 21.5213 14.0444 22.3524L18.9648 30.486C19.541 31.4524 20.5334 32 21.6219 32C21.7499 32 21.894 32 22.022 31.9839C23.2705 31.8228 24.2629 30.9692 24.6311 29.7612L32.2662 4.03967C32.6024 2.94445 32.2982 1.75259 31.4979 0.931172" fill="#F9A34E"/>
</svg>
