<svg width="32" height="32" viewBox="0 0 32 32" fill="none" xmlns="http://www.w3.org/2000/svg">
<path d="M25.4709 19.7122C25.0565 20.1138 24.8661 20.6946 24.9605 21.2642L26.3829 29.1362C26.5029 29.8034 26.2213 30.4786 25.6629 30.8642C25.1157 31.2642 24.3877 31.3122 23.7909 30.9922L16.7045 27.2962C16.4581 27.165 16.1845 27.0946 15.9045 27.0866H15.4709C15.3205 27.109 15.1733 27.157 15.0389 27.2306L7.95087 30.9442C7.60047 31.1202 7.20367 31.1826 6.81487 31.1202C5.86767 30.941 5.23567 30.0386 5.39087 29.0866L6.81487 21.2146C6.90927 20.6402 6.71887 20.0562 6.30447 19.6482L0.526873 14.0482C0.0436727 13.5794 -0.124327 12.8754 0.0964727 12.2402C0.310873 11.6066 0.858073 11.1442 1.51887 11.0402L9.47087 9.88657C10.0757 9.82417 10.6069 9.45617 10.8789 8.91217L14.3829 1.72817C14.4661 1.56817 14.5733 1.42097 14.7029 1.29617L14.8469 1.18417C14.9221 1.10097 15.0085 1.03217 15.1045 0.976171L15.2789 0.912171L15.5509 0.800171H16.2245C16.8261 0.862571 17.3557 1.22257 17.6325 1.76017L21.1829 8.91217C21.4389 9.43537 21.9365 9.79857 22.5109 9.88657L30.4629 11.0402C31.1349 11.1362 31.6965 11.6002 31.9189 12.2402C32.1285 12.8818 31.9477 13.5858 31.4549 14.0482L25.4709 19.7122Z" fill="#F9A34E"/>
</svg>
