<svg width="40" height="40" viewBox="0 0 40 40" fill="none" xmlns="http://www.w3.org/2000/svg">
<path d="M18.9463 4.17013C19.5745 3.9474 20.2757 3.94289 20.9151 4.15939L31.5342 7.72286C32.723 8.11981 33.5268 9.21196 33.5332 10.4358L33.6016 21.0608C33.6225 24.2816 32.448 27.4053 30.2979 29.8527C29.3089 30.9761 28.0407 31.941 26.4219 32.8039L20.7129 35.8557C20.5342 35.9497 20.3377 35.9986 20.1397 36.0002C19.9417 36.0018 19.7435 35.955 19.5664 35.8625L13.8047 32.8811C12.1683 32.0323 10.8893 31.0815 9.89066 29.9738C7.7049 27.5514 6.4898 24.4417 6.46879 21.216L6.40141 10.5988C6.39496 9.37357 7.1841 8.27327 8.36625 7.86056L18.9463 4.17013ZM25.9932 15.55C25.518 15.0934 24.753 15.0969 24.2842 15.5598L18.8946 20.8723L16.6875 18.7512C16.2124 18.2946 15.4489 18.2991 14.9786 18.7619C14.5099 19.2248 14.5151 19.9685 14.9903 20.425L18.0547 23.3742C18.2931 23.6033 18.6029 23.7162 18.9121 23.7131C19.2214 23.7115 19.5295 23.5957 19.7647 23.3635L26.003 17.2131C26.4716 16.7503 26.4667 16.0065 25.9932 15.55Z" fill="#F9A34E"/>
</svg>
